<svg xmlns="http://www.w3.org/2000/svg" xmlns:xlink="http://www.w3.org/1999/xlink" width="870pt" height="334pt" viewBox="0.00 0.00 870.00 334.05">
<g id="graph0" class="graph" transform="scale(1 1) rotate(0) translate(4 330.05)">
<title>DiskSchedulingSimulator</title>
<polygon fill="white" stroke="none" points="-4,4 -4,-330.05 866,-330.05 866,4 -4,4"/>
<g id="clust1" class="cluster">
<title>cluster_algorithms</title>
<path fill="none" stroke="lightgrey" d="M20,-96C20,-96 842,-96 842,-96 848,-96 854,-102 854,-108 854,-108 854,-170.05 854,-170.05 854,-176.05 848,-182.05 842,-182.05 842,-182.05 20,-182.05 20,-182.05 14,-182.05 8,-176.05 8,-170.05 8,-170.05 8,-108 8,-108 8,-102 14,-96 20,-96"/>
<text text-anchor="middle" x="431" y="-165.45" font-family="Times,serif" font-size="14.00">Algorithm Implementations (JS)</text>
</g>
<!-- UserInputs -->
<g id="node1" class="node">
<title>UserInputs</title>
<polygon fill="#ffcc99" stroke="#cc6600" points="437.13,-326.05 328.87,-326.05 328.87,-270.05 437.13,-270.05 437.13,-326.05"/>
<text text-anchor="middle" x="383" y="-313.05" font-family="Arial" font-size="10.00">User Inputs (HTML)</text>
<text text-anchor="middle" x="383" y="-301.05" font-family="Arial" font-size="10.00">- Sequence</text>
<text text-anchor="middle" x="383" y="-289.05" font-family="Arial" font-size="10.00">- Head</text>
<text text-anchor="middle" x="383" y="-277.05" font-family="Arial" font-size="10.00">- Direction (Optional)</text>
</g>
<!-- AlgorithmSelection -->
<g id="node2" class="node">
<title>AlgorithmSelection</title>
<polygon fill="#ffee99" stroke="#cc9900" points="527.41,-234.05 238.59,-234.05 238.59,-190.05 527.41,-190.05 527.41,-234.05"/>
<text text-anchor="middle" x="383" y="-221.05" font-family="Arial" font-size="10.00">Algorithm Selection</text>
<text text-anchor="middle" x="383" y="-209.05" font-family="Arial" font-size="10.00">User selects:</text>
<text text-anchor="middle" x="383" y="-197.05" font-family="Arial" font-size="10.00">FCFS, SSTF, SCAN, C-SCAN, LOOK, C-LOOK, Compare-All</text>
</g>
<!-- UserInputs&#45;&gt;AlgorithmSelection -->
<g id="edge1" class="edge">
<title>UserInputs-&gt;AlgorithmSelection</title>
<path fill="none" stroke="black" d="M383,-270.01C383,-262.28 383,-253.77 383,-245.74"/>
<polygon fill="black" stroke="black" points="386.5,-245.97 383,-235.97 379.5,-245.97 386.5,-245.97"/>
</g>
<!-- fcfs -->
<g id="node3" class="node">
<title>fcfs</title>
<polygon fill="#ff9999" stroke="#cc0000" points="103.56,-144.63 16.44,-144.63 16.44,-108.63 103.56,-108.63 103.56,-144.63"/>
<text text-anchor="middle" x="60" y="-129.63" font-family="Arial" font-size="10.00">fcfs.js</text>
<text text-anchor="middle" x="60" y="-117.63" font-family="Arial" font-size="10.00">FCFS Algorithm</text>
</g>
<!-- AlgorithmSelection&#45;&gt;fcfs -->
<g id="edge2" class="edge">
<title>AlgorithmSelection-&gt;fcfs</title>
<path fill="none" stroke="black" d="M238.12,-204.23C186.57,-199.97 135.68,-193.09 113,-182.05 99.66,-175.56 87.81,-164.27 78.71,-153.64"/>
<polygon fill="black" stroke="black" points="81.7,-151.77 72.7,-146.17 76.25,-156.16 81.7,-151.77"/>
</g>
<!-- sstf -->
<g id="node4" class="node">
<title>sstf</title>
<polygon fill="#ffb266" stroke="#cc6600" points="208.29,-144.63 121.71,-144.63 121.71,-108.63 208.29,-108.63 208.29,-144.63"/>
<text text-anchor="middle" x="165" y="-129.63" font-family="Arial" font-size="10.00">sstf.js</text>
<text text-anchor="middle" x="165" y="-117.63" font-family="Arial" font-size="10.00">SSTF Algorithm</text>
</g>
<!-- AlgorithmSelection&#45;&gt;sstf -->
<g id="edge3" class="edge">
<title>AlgorithmSelection-&gt;sstf</title>
<path fill="none" stroke="black" d="M238.12,-191.13C231.17,-188.46 224.43,-185.45 218,-182.05 205.1,-175.24 193.46,-164.15 184.39,-153.76"/>
<polygon fill="black" stroke="black" points="187.14,-151.59 178.08,-146.1 181.73,-156.04 187.14,-151.59"/>
</g>
<!-- scan -->
<g id="node5" class="node">
<title>scan</title>
<polygon fill="#ffcc66" stroke="#cc9900" points="315.4,-144.63 226.6,-144.63 226.6,-108.63 315.4,-108.63 315.4,-144.63"/>
<text text-anchor="middle" x="271" y="-129.63" font-family="Arial" font-size="10.00">scan.js</text>
<text text-anchor="middle" x="271" y="-117.63" font-family="Arial" font-size="10.00">SCAN Algorithm</text>
</g>
<!-- AlgorithmSelection&#45;&gt;scan -->
<g id="edge4" class="edge">
<title>AlgorithmSelection-&gt;scan</title>
<path fill="none" stroke="black" d="M335.76,-189.68C331.68,-187.29 327.69,-184.74 324,-182.05 312.61,-173.79 301.5,-162.95 292.42,-153.13"/>
<polygon fill="black" stroke="black" points="295.3,-151.09 286.02,-145.97 290.08,-155.76 295.3,-151.09"/>
</g>
<!-- cscan -->
<g id="node6" class="node">
<title>cscan</title>
<polygon fill="#99ccff" stroke="#3366cc" points="432.67,-144.63 333.33,-144.63 333.33,-108.63 432.67,-108.63 432.67,-144.63"/>
<text text-anchor="middle" x="383" y="-129.63" font-family="Arial" font-size="10.00">cscan.js</text>
<text text-anchor="middle" x="383" y="-117.63" font-family="Arial" font-size="10.00">C-SCAN Algorithm</text>
</g>
<!-- AlgorithmSelection&#45;&gt;cscan -->
<g id="edge5" class="edge">
<title>AlgorithmSelection-&gt;cscan</title>
<path fill="none" stroke="black" d="M383,-189.57C383,-179.54 383,-167.45 383,-156.62"/>
<polygon fill="black" stroke="black" points="386.5,-156.62 383,-146.62 379.5,-156.62 386.5,-156.62"/>
</g>
<!-- look -->
<g id="node7" class="node">
<title>look</title>
<polygon fill="#66ff99" stroke="#00cc66" points="539.4,-144.63 450.6,-144.63 450.6,-108.63 539.4,-108.63 539.4,-144.63"/>
<text text-anchor="middle" x="495" y="-129.63" font-family="Arial" font-size="10.00">look.js</text>
<text text-anchor="middle" x="495" y="-117.63" font-family="Arial" font-size="10.00">LOOK Algorithm</text>
</g>
<!-- AlgorithmSelection&#45;&gt;look -->
<g id="edge6" class="edge">
<title>AlgorithmSelection-&gt;look</title>
<path fill="none" stroke="black" d="M430.24,-189.68C434.32,-187.29 438.31,-184.74 442,-182.05 453.39,-173.79 464.5,-162.95 473.58,-153.13"/>
<polygon fill="black" stroke="black" points="475.92,-155.76 479.98,-145.97 470.7,-151.09 475.92,-155.76"/>
</g>
<!-- clook -->
<g id="node8" class="node">
<title>clook</title>
<polygon fill="#66ffff" stroke="#009999" points="656.68,-144.63 557.32,-144.63 557.32,-108.63 656.68,-108.63 656.68,-144.63"/>
<text text-anchor="middle" x="607" y="-129.63" font-family="Arial" font-size="10.00">clook.js</text>
<text text-anchor="middle" x="607" y="-117.63" font-family="Arial" font-size="10.00">C-LOOK Algorithm</text>
</g>
<!-- AlgorithmSelection&#45;&gt;clook -->
<g id="edge7" class="edge">
<title>AlgorithmSelection-&gt;clook</title>
<path fill="none" stroke="black" d="M527.67,-190.71C534.67,-188.15 541.48,-185.28 548,-182.05 562.09,-175.08 575.23,-163.68 585.51,-153.11"/>
<polygon fill="black" stroke="black" points="587.84,-155.74 592.07,-146.02 582.71,-150.98 587.84,-155.74"/>
</g>
<!-- compare -->
<g id="node9" class="node">
<title>compare</title>
<ellipse fill="#ccccff" stroke="#6666cc" cx="760" cy="-126.63" rx="85.58" ry="22.63"/>
<text text-anchor="middle" x="760" y="-129.63" font-family="Arial" font-size="10.00">compare.js</text>
<text text-anchor="middle" x="760" y="-117.63" font-family="Arial" font-size="10.00">Compare All Algorithms</text>
</g>
<!-- AlgorithmSelection&#45;&gt;compare -->
<g id="edge8" class="edge">
<title>AlgorithmSelection-&gt;compare</title>
<path fill="none" stroke="black" d="M527.8,-201.79C583.51,-197.05 639.98,-190.49 666,-182.05 685.64,-175.69 705.68,-164.81 722.18,-154.44"/>
<polygon fill="black" stroke="black" points="723.7,-157.63 730.19,-149.26 719.89,-151.75 723.7,-157.63"/>
</g>
<!-- ResultDisplay -->
<g id="node10" class="node">
<title>ResultDisplay</title>
<polygon fill="#cccccc" stroke="#666666" points="485.06,-68 280.94,-68 280.94,0 485.06,0 485.06,-68"/>
<text text-anchor="middle" x="383" y="-55" font-family="Arial" font-size="10.00">Result Display (HTML + CanvasJS Graph)</text>
<text text-anchor="middle" x="383" y="-43" font-family="Arial" font-size="10.00">- Total Seek Count</text>
<text text-anchor="middle" x="383" y="-31" font-family="Arial" font-size="10.00">- Average Seek Count</text>
<text text-anchor="middle" x="383" y="-19" font-family="Arial" font-size="10.00">- Serve Order</text>
<text text-anchor="middle" x="383" y="-7" font-family="Arial" font-size="10.00">- Graph</text>
</g>
<!-- fcfs&#45;&gt;ResultDisplay -->
<g id="edge9" class="edge">
<title>fcfs-&gt;ResultDisplay</title>
<path fill="none" stroke="black" d="M87.6,-108.23C95.57,-103.75 104.44,-99.28 113,-96 162.85,-76.89 220.29,-62.88 269.33,-53.14"/>
<polygon fill="black" stroke="black" points="270,-56.58 279.15,-51.23 268.66,-49.71 270,-56.58"/>
</g>
<!-- sstf&#45;&gt;ResultDisplay -->
<g id="edge10" class="edge">
<title>sstf-&gt;ResultDisplay</title>
<path fill="none" stroke="black" d="M194.29,-108.19C201.89,-103.96 210.15,-99.62 218,-96 235.82,-87.79 255.09,-79.85 273.95,-72.58"/>
<polygon fill="black" stroke="black" points="275.18,-75.86 283.28,-69.03 272.69,-69.31 275.18,-75.86"/>
</g>
<!-- scan&#45;&gt;ResultDisplay -->
<g id="edge11" class="edge">
<title>scan-&gt;ResultDisplay</title>
<path fill="none" stroke="black" d="M292.59,-108.15C304.18,-98.78 318.96,-86.82 333.21,-75.29"/>
<polygon fill="black" stroke="black" points="335.22,-78.16 340.79,-69.15 330.82,-72.72 335.22,-78.16"/>
</g>
<!-- cscan&#45;&gt;ResultDisplay -->
<g id="edge12" class="edge">
<title>cscan-&gt;ResultDisplay</title>
<path fill="none" stroke="black" d="M383,-108.15C383,-99.93 383,-89.71 383,-79.55"/>
<polygon fill="black" stroke="black" points="386.5,-79.71 383,-69.71 379.5,-79.71 386.5,-79.71"/>
</g>
<!-- look&#45;&gt;ResultDisplay -->
<g id="edge13" class="edge">
<title>look-&gt;ResultDisplay</title>
<path fill="none" stroke="black" d="M473.41,-108.15C461.82,-98.78 447.04,-86.82 432.79,-75.29"/>
<polygon fill="black" stroke="black" points="435.18,-72.72 425.21,-69.15 430.78,-78.16 435.18,-72.72"/>
</g>
<!-- clook&#45;&gt;ResultDisplay -->
<g id="edge14" class="edge">
<title>clook-&gt;ResultDisplay</title>
<path fill="none" stroke="black" d="M573.92,-108.21C565.55,-104.02 556.52,-99.7 548,-96 529.24,-87.85 509.01,-79.79 489.35,-72.33"/>
<polygon fill="black" stroke="black" points="490.83,-69.15 480.24,-68.91 488.37,-75.7 490.83,-69.15"/>
</g>
<!-- compare&#45;&gt;ResultDisplay -->
<g id="edge15" class="edge">
<title>compare-&gt;ResultDisplay</title>
<path fill="none" stroke="black" d="M708.05,-108.3C694.44,-104.03 679.73,-99.63 666,-96 610.66,-81.35 548.55,-67.66 496.64,-56.98"/>
<polygon fill="black" stroke="black" points="497.37,-53.55 486.87,-54.98 495.97,-60.41 497.37,-53.55"/>
</g>
</g>
</svg>